<svg xmlns="http://www.w3.org/2000/svg" width="720" height="1280" viewBox="0 0 720 1280">
<defs>
 <linearGradient id="bg" x1="0" y1="0" x2="1" y2="1"><stop stop-color="#05080e"/><stop offset=".55" stop-color="#071423"/><stop offset="1" stop-color="#05070b"/></linearGradient>
 <linearGradient id="ice" x1="0" y1="0" x2="1" y2="1"><stop stop-color="#bcecff"/><stop offset="1" stop-color="#63b9f4"/></linearGradient>
 <linearGradient id="card" x1="0" y1="0" x2="1" y2="1"><stop stop-color="#102438"/><stop offset="1" stop-color="#0a1522"/></linearGradient>
</defs>
<rect width="720" height="1280" fill="url(#bg)"/>
<rect x="32" y="34" rx="20" width="58" height="58" fill="url(#ice)"/><text x="61" y="72" text-anchor="middle" font-family="Arial" font-size="28" font-weight="700" fill="#07111a">R</text>
<text x="112" y="63" font-family="Arial" font-size="30" font-weight="700" fill="#f7fbff">ReVPN</text>
<text x="112" y="87" font-family="Arial" font-size="15" fill="#8fa4bc">VPN · Telegram</text>
<rect x="514" y="38" rx="18" width="170" height="48" fill="#0d1725" stroke="#ffffff" stroke-opacity=".12"/>
<text x="599" y="68" text-anchor="middle" font-family="Arial" font-size="18" font-weight="700" fill="#dbe9f7">Мои подписки</text>

<text x="34" y="155" font-family="Arial" font-size="16" font-weight="700" fill="#76cfff" letter-spacing="2">REVVPN · ПОДКЛЮЧЕНИЕ</text>
<text x="34" y="205" font-family="Arial" font-size="44" font-weight="700" fill="#f7fbff">Выбери тариф</text>
<rect x="32" y="232" rx="24" width="656" height="104" fill="#0b1928" stroke="#69c5ff" stroke-opacity=".22"/>
<circle cx="84" cy="284" r="26" fill="#18344a"/><text x="84" y="292" text-anchor="middle" font-family="Arial" font-size="24" fill="#94d9ff">✦</text>
<text x="126" y="274" font-family="Arial" font-size="18" font-weight="700" fill="#eff8ff">Подключение без лишних шагов</text>
<text x="126" y="304" font-family="Arial" font-size="14" fill="#91a4ba">Срок и итоговую цену подтвердим в боте.</text>

<text x="34" y="390" font-family="Arial" font-size="15" font-weight="700" fill="#76cfff" letter-spacing="2">ТАРИФЫ</text>
<g>
 <rect x="32" y="420" rx="24" width="316" height="230" fill="url(#card)" stroke="#73caff" stroke-opacity=".35"/>
 <rect x="372" y="420" rx="24" width="316" height="230" fill="url(#card)" stroke="#ffffff" stroke-opacity=".10"/>
 <rect x="32" y="676" rx="24" width="316" height="230" fill="url(#card)" stroke="#ffffff" stroke-opacity=".10"/>
 <rect x="372" y="676" rx="24" width="316" height="230" fill="url(#card)" stroke="#aa9cff" stroke-opacity=".20"/>
 <text x="58" y="472" font-family="Arial" font-size="20" font-weight="700" fill="#f7fbff">Обычный VPN</text><text x="58" y="515" font-family="Arial" font-size="34" font-weight="700" fill="#f7fbff">50 ₽</text><text x="140" y="515" font-family="Arial" font-size="16" fill="#91a4ba">/ 30 дней</text>
 <rect x="58" y="570" rx="15" width="264" height="50" fill="url(#ice)"/><text x="190" y="602" text-anchor="middle" font-family="Arial" font-size="17" font-weight="700" fill="#07111a">Выбрать тариф</text>
 <text x="398" y="472" font-family="Arial" font-size="20" font-weight="700" fill="#f7fbff">Белые списки</text><text x="398" y="515" font-family="Arial" font-size="34" font-weight="700" fill="#f7fbff">100 ₽</text><text x="504" y="515" font-family="Arial" font-size="16" fill="#91a4ba">/ 30 дней</text>
 <rect x="398" y="570" rx="15" width="264" height="50" fill="#182434"/><text x="530" y="602" text-anchor="middle" font-family="Arial" font-size="17" font-weight="700" fill="#dcecff">Выбрать тариф</text>
 <text x="58" y="728" font-family="Arial" font-size="20" font-weight="700" fill="#f7fbff">VPN + списки</text><text x="58" y="771" font-family="Arial" font-size="34" font-weight="700" fill="#f7fbff">150 ₽</text>
 <text x="398" y="728" font-family="Arial" font-size="20" font-weight="700" fill="#f7fbff">MTProto</text><text x="398" y="771" font-family="Arial" font-size="34" font-weight="700" fill="#f7fbff">25 ₽</text>
</g>

<text x="34" y="966" font-family="Arial" font-size="15" font-weight="700" fill="#76cfff" letter-spacing="2">EVENT HUB</text>
<rect x="32" y="995" rx="28" width="656" height="232" fill="url(#card)" stroke="#74caff" stroke-opacity=".22"/>
<rect x="58" y="1023" rx="16" width="132" height="38" fill="#112b3c"/><circle cx="78" cy="1042" r="5" fill="#69d3ff"/><text x="94" y="1048" font-family="Arial" font-size="15" font-weight="700" fill="#93ddff">LIVE ИВЕНТ</text>
<circle cx="126" cy="1120" r="48" fill="#1a3953" stroke="#8edcff" stroke-width="5"/><text x="126" y="1132" text-anchor="middle" font-size="38">❄</text>
<text x="204" y="1100" font-family="Arial" font-size="16" font-weight="700" fill="#8ecfff">ПОЙМАЙ СНЕЖИНКУ</text>
<text x="204" y="1136" font-family="Arial" font-size="29" font-weight="700" fill="#f7fbff">Морозный буст</text>
<text x="204" y="1170" font-family="Arial" font-size="15" fill="#91a4ba">Быстрая мини-игра · награды VPN/₽</text>
<text x="32" y="1262" font-family="Arial" font-size="13" fill="#61758d">Visual direction: compact, readable, icy ReVPN identity; ColaVPN is only a polish/density reference, not a design to copy.</text>
</svg>